HIERARCHY
ROOT Hips
{
	OFFSET 0.000000 0.000000 0.000000
	CHANNELS 6 Xposition Yposition Zposition Zrotation Yrotation Xrotation 
	JOINT LeftUpLeg_virtual
	{
		OFFSET 0.000000 0.000000 0.000000
		CHANNELS 3 Zrotation Yrotation Xrotation
		JOINT LeftUpLeg
		{
			OFFSET 10.205400 -3.823500 0.155100
			CHANNELS 3 Zrotation Yrotation Xrotation
			JOINT LeftLeg
			{
				OFFSET 0.708757 -12.982077 0.567790
				CHANNELS 3 Zrotation Yrotation Xrotation
				JOINT LeftFoot
				{
					OFFSET -0.708756 -10.717838 -2.184338
					CHANNELS 3 Zrotation Yrotation Xrotation
					JOINT LeftToeBase
					{
						OFFSET 0.108149 -7.191104 7.560241
						CHANNELS 3 Zrotation Yrotation Xrotation
						End Site
						{
							OFFSET 0.000000 0.000000 0.000000
						}
					}
				}
			}
		}
	}
	JOINT RightUpLeg_virtual
	{
		OFFSET 0.000000 0.000000 0.000000
		CHANNELS 3 Zrotation Yrotation Xrotation
		JOINT RightUpLeg
		{
			OFFSET -10.205400 -3.823500 0.005500
			CHANNELS 3 Zrotation Yrotation Xrotation
			JOINT RightLeg
			{
				OFFSET -0.708756 -12.982134 0.610632
				CHANNELS 3 Zrotation Yrotation Xrotation
				JOINT RightFoot
				{
					OFFSET 0.708754 -10.717769 -1.945823
					CHANNELS 3 Zrotation Yrotation Xrotation
					JOINT RightToeBase
					{
						OFFSET -0.108140 -7.191069 7.372968
						CHANNELS 3 Zrotation Yrotation Xrotation
						End Site
						{
							OFFSET 0.000000 0.000000 0.000000
						}
					}
				}
			}
		}
	}
	JOINT Spine_virtual
	{
		OFFSET 0.000000 0.000000 0.000000
		CHANNELS 3 Zrotation Yrotation Xrotation
		JOINT Spine
		{
			OFFSET 0.000000 6.876099 0.125700
			CHANNELS 3 Zrotation Yrotation Xrotation
			JOINT Spine1
			{
				OFFSET 0.000000 8.022060 0.146608
				CHANNELS 3 Zrotation Yrotation Xrotation
				JOINT Spine2
				{
					OFFSET 0.000000 9.168068 0.167552
					CHANNELS 3 Zrotation Yrotation Xrotation
					JOINT Neck_virtual
					{
						OFFSET 0.000000 0.000000 0.000000
						CHANNELS 3 Zrotation Yrotation Xrotation
						JOINT Neck
						{
							OFFSET 0.000000 10.314075 0.188496
							CHANNELS 3 Zrotation Yrotation Xrotation
							JOINT Head
							{
								OFFSET 0.000000 7.643700 -2.377400
								CHANNELS 3 Zrotation Yrotation Xrotation
								End Site
								{
									OFFSET 0.000000 0.000000 0.000000
								}
							}
						}
					}
					JOINT LeftShoulder_virtual
					{
						OFFSET 0.000000 0.000000 0.000000
						CHANNELS 3 Zrotation Yrotation Xrotation
						JOINT LeftShoulder
						{
							OFFSET 4.392200 8.824978 0.174984
							CHANNELS 3 Zrotation Yrotation Xrotation
							JOINT LeftArm
							{
								OFFSET 8.771219 -2.981674 -0.026999
								CHANNELS 3 Zrotation Yrotation Xrotation
								JOINT LeftForeArm
								{
									OFFSET 8.512804 0.000000 -0.000000
									CHANNELS 3 Zrotation Yrotation Xrotation
									JOINT LeftHand
									{
										OFFSET 18.484802 0.000000 -0.000000
										CHANNELS 3 Zrotation Yrotation Xrotation
										End Site
										{
											OFFSET 0.000000 0.000000 0.000000
										}
									}
								}
							}
						}
					}
					JOINT RightShoulder_virtual
					{
						OFFSET 0.000000 0.000000 0.000000
						CHANNELS 3 Zrotation Yrotation Xrotation
						JOINT RightShoulder
						{
							OFFSET -4.392200 8.824993 0.141379
							CHANNELS 3 Zrotation Yrotation Xrotation
							JOINT RightArm
							{
								OFFSET -8.771282 -2.981682 -0.094208
								CHANNELS 3 Zrotation Yrotation Xrotation
								JOINT RightForeArm
								{
									OFFSET -8.494598 0.000000 0.000000
									CHANNELS 3 Zrotation Yrotation Xrotation
									JOINT RightHand
									{
										OFFSET -18.483803 0.000000 0.000001
										CHANNELS 3 Zrotation Yrotation Xrotation
										End Site
										{
											OFFSET 0.000000 0.000000 0.000000
										}
									}
								}
							}
						}
					}
				}
			}
		}
	}
}
MOTION
Frames: 5
Frame Time: 0.033333
15.514058 36.426186 63.291386 -179.933698 19.242333 179.488847 -3.478639 -1.957560 5.071930 -1.642998 0.112258 -20.185523 12.044339 12.032136 16.873786 -1.002652 0.467911 17.432586 0.000000 0.000000 0.000000 1.842410 -1.345820 2.601899 3.049985 6.476577 -11.485463 -8.870625 5.810272 10.616435 6.322404 7.842089 9.432332 0.000000 0.000000 0.000000 -0.121212 1.071718 -4.958200 2.318920 -4.333551 -9.635328 -1.555909 -1.338703 9.899864 0.028867 0.000581 -0.110758 -2.025178 1.018254 11.611569 -2.551760 0.752674 6.181308 0.000000 0.000000 0.000000 -0.250074 1.667983 9.055025 -13.244608 -8.111417 2.423378 -54.802443 22.545741 11.678707 -0.316062 -50.807786 8.049704 0.000000 0.000000 0.000000 -4.612873 2.830513 8.406075 27.556675 4.914586 2.744561 48.539330 -17.976242 22.242417 -8.583726 31.361770 -5.526423 0.000000 0.000000 0.000000 
15.573067 36.408218 63.233883 -179.827871 18.971021 179.250747 -3.573069 -1.990647 5.011324 -1.745403 0.433138 -20.252716 12.014077 12.487977 16.940484 -0.477060 0.854875 17.473055 0.000000 0.000000 0.000000 1.744796 -1.090403 2.321553 2.902381 6.802913 -11.791344 -8.983370 6.204986 10.480528 6.290249 7.761054 8.936802 0.000000 0.000000 0.000000 -0.035136 0.959760 -4.775735 2.311549 -4.448381 -9.548698 -1.575276 -1.438693 9.819739 -0.021343 -0.086908 -0.131521 -2.028269 0.983019 11.599599 -2.576119 0.756521 6.299698 0.000000 0.000000 0.000000 -0.220839 1.595046 9.160473 -13.118697 -8.162075 2.378299 -54.723605 22.246698 11.480587 -0.548367 -50.862991 8.272855 0.000000 0.000000 0.000000 -4.620182 2.815493 8.393654 27.566121 4.938719 2.742975 48.581653 -17.729440 22.215460 -8.574973 31.517112 -5.389663 0.000000 0.000000 0.000000 
15.672709 36.397121 63.169899 -179.841203 18.971766 179.262481 -3.494192 -2.068789 4.994128 -1.662554 0.496959 -20.146379 11.987718 12.434090 16.994583 -0.593735 0.797354 17.476359 0.000000 0.000000 0.000000 1.715722 -1.185750 2.320878 3.094598 6.827963 -11.757267 -8.936208 6.273135 10.731681 6.196189 7.698430 8.781406 0.000000 0.000000 0.000000 -0.053116 1.106041 -4.785016 2.251539 -4.590095 -9.566610 -1.583840 -1.595224 9.644283 -0.023682 0.005216 -0.038083 -2.049036 1.018751 11.510685 -2.615074 0.770776 6.255668 0.000000 0.000000 0.000000 -0.205227 1.624666 9.064592 -13.019754 -8.200896 2.349442 -54.633399 21.749508 11.221546 -0.412265 -51.034931 8.107406 0.000000 0.000000 0.000000 -4.608786 2.864057 8.368522 27.552269 4.953060 2.748863 48.654648 -17.416917 22.117245 -8.614169 31.765332 -5.455095 0.000000 0.000000 0.000000 
15.806498 36.392010 63.105545 -179.883714 19.092711 179.298217 -3.454892 -2.030257 4.992785 -1.490838 0.583532 -19.999364 11.922948 12.379685 16.997175 -0.722172 0.775090 17.392418 0.000000 0.000000 0.000000 1.695811 -1.188835 2.314866 3.307938 6.829360 -11.781066 -8.889742 6.346394 11.036060 6.120167 7.680374 8.685592 0.000000 0.000000 0.000000 -0.066607 0.979938 -4.962099 2.180648 -4.412908 -9.679833 -1.547444 -1.405694 9.933027 -0.006939 -0.037457 -0.162003 -1.976960 0.974539 11.490725 -2.727316 0.722056 6.256029 0.000000 0.000000 0.000000 -0.183710 1.503963 9.068060 -12.888112 -8.362897 2.331030 -54.525667 21.277050 11.053833 -0.480478 -50.987082 8.172110 0.000000 0.000000 0.000000 -4.552533 2.750331 8.314578 27.439115 4.896525 2.750747 48.710198 -17.063170 21.970094 -8.542046 32.023909 -5.256108 0.000000 0.000000 0.000000 
15.981146 36.390106 63.029259 -179.932031 19.264077 179.341616 -3.411008 -2.003399 5.019102 -1.271540 0.746471 -19.829878 11.836702 12.286376 16.978006 -0.862856 0.785839 17.356308 0.000000 0.000000 0.000000 1.677252 -1.226610 2.353931 3.551212 6.860652 -11.815286 -8.822127 6.410319 11.359376 6.026332 7.672708 8.593949 0.000000 0.000000 0.000000 -0.106350 0.976340 -5.040299 2.148051 -4.448364 -9.807782 -1.567465 -1.455426 9.953670 0.036916 -0.078763 -0.051897 -1.991394 0.911390 11.437425 -2.756653 0.773875 6.290261 0.000000 0.000000 0.000000 -0.164875 1.605195 8.934086 -12.806498 -8.355335 2.290073 -54.342419 20.898236 11.126559 -0.627569 -50.964017 8.314808 0.000000 0.000000 0.000000 -4.566379 2.825169 8.276510 27.324723 4.954315 2.717166 48.733379 -16.735224 21.760822 -8.534024 32.366224 -5.418637 0.000000 0.000000 0.000000 
